<svg xmlns="http://www.w3.org/2000/svg" width="17.753" height="20.856" viewBox="0 0 17.753 20.856">
  <path id="Path_98863" data-name="Path 98863" d="M5,13A12.028,12.028,0,0,1,12,1.818,12.028,12.028,0,0,1,19,13a13.116,13.116,0,0,1-.221,2.4l1.94,1.833a.5.5,0,0,1,.1.6l-2.5,4.575a.5.5,0,0,1-.792.114l-2.235-2.235A1,1,0,0,0,14.585,20H9.414a1,1,0,0,0-.707.293L6.472,22.527a.5.5,0,0,1-.792-.114l-2.5-4.575a.5.5,0,0,1,.1-.6L5.22,15.4A13.113,13.113,0,0,1,5,13Zm1.476,6.7.817-.817A3,3,0,0,1,9.414,18h5.172a3,3,0,0,1,2.121.879l.817.817.982-1.8-1.1-1.039a2,2,0,0,1-.593-1.82A11.109,11.109,0,0,0,17,13a10.166,10.166,0,0,0-5-8.96A10.166,10.166,0,0,0,7,13a11.113,11.113,0,0,0,.187,2.036,2,2,0,0,1-.593,1.82L5.494,17.9ZM12,13a2,2,0,1,1,2-2A2,2,0,0,1,12,13Z" transform="translate(-3.123 -1.818)"/>
</svg>
