<svg xmlns="http://www.w3.org/2000/svg" width="21" height="21" viewBox="0 0 21 21">
  <path id="Path_98865" data-name="Path 98865" d="M4,12A7.973,7.973,0,0,1,6.235,6.453a1.276,1.276,0,0,1,.306.429,3.188,3.188,0,0,1,.2,1.345,2.167,2.167,0,0,0,.1.865c.145.308.766.439,1.316.554l.02,0c.19.04.385.081.563.13a2.753,2.753,0,0,1,1.211.959,2.764,2.764,0,0,0,.419.43,1.019,1.019,0,0,0,.292-.5.586.586,0,0,0-.046-.519,2.927,2.927,0,0,1-.356-2.4c.272-.739,1.123-.684,1.744-.644h.006a3.591,3.591,0,0,0,.608.008c.471-.059.7-.616.835-.963a1.4,1.4,0,0,1,.114-.246,7.885,7.885,0,0,1,1.577-1.265,8.024,8.024,0,0,1,4.424,4.779,7.984,7.984,0,0,1,2.338,1.263A10,10,0,1,0,10.687,21.915a7.984,7.984,0,0,1-1.263-2.338A8,8,0,0,1,4,12Zm13,1a4,4,0,1,0,4,4A4,4,0,0,0,17,13Zm-6,4a6,6,0,1,1,6,6A6,6,0,0,1,11,17Zm5-3v4h4V16H18V14Z" transform="translate(-2 -2)"/>
</svg>
