<svg xmlns="http://www.w3.org/2000/svg" width="51.534" height="41.227" viewBox="0 0 51.534 41.227">
  <path id="Path_98826" data-name="Path 98826" d="M28.4,4c1.376.008,4.82.041,8.478.187l1.3.057a52.66,52.66,0,0,1,9.189.981,7.243,7.243,0,0,1,5,5.21c1.03,4.017,1.159,11.859,1.175,13.756l0,.393v.055l0,.393c-.016,1.9-.145,9.739-1.175,13.756a7.243,7.243,0,0,1-5,5.21,52.672,52.672,0,0,1-9.189.981l-1.3.056c-3.659.147-7.1.18-8.478.188l-.6,0h-.054l-.6,0C24.223,45.209,12.044,45.077,8.17,44a7.243,7.243,0,0,1-5-5.21C2.145,34.772,2.016,26.931,2,25.033v-.842c.016-1.9.145-9.739,1.175-13.756a7.243,7.243,0,0,1,5-5.21C12.044,4.147,24.223,4.016,27.136,4ZM22.612,15.593V33.631l15.461-9.019Z" transform="translate(-2 -4)" fill="#f74e4e"/>
</svg>
